<svg width="956" height="956" viewBox="0 0 956 956" fill="none" xmlns="http://www.w3.org/2000/svg">
<g opacity="0.1">
<path d="M658.8 538.4C656.3 506 652.6 473.7 650.3 441.2C648 409.1 646.7 376.8 645.8 344.6C645.4 331.1 645.7 317.6 645.6 304.1C645.6 297.9 645.4 291.5 644.3 285.4C643.8 282.8 643.3 280.3 642.3 277.8C641.9 276.8 641.5 275.9 641 275C640.3 275.6 639.4 276 638.2 276.2C613.9 279.9 588.9 281.1 564.3 282C531.9 283.1 499.4 283.6 467 285.8C450.8 286.9 434.7 288.3 418.5 288.6C405.5 288.9 392.6 289.5 379.6 290.4C371.6 291 363.6 291.2 355.6 291.9C351.6 292.3 347.5 292.6 343.5 293.4C342.3 293.6 341.1 294 340 294.4C340.1 294.8 340.1 295.3 340 295.7C339.5 302.5 341.7 309.2 343 315.7C344.4 322.7 344.7 329.8 344.9 336.9C345.3 352 345.8 367.1 346.2 382.2C347.1 413.4 347.2 444.6 350.4 475.7C352 491.5 354.1 507.3 355.9 523.1C357.6 538.3 357.4 553.8 357.4 569C357.3 599.7 357.2 630.3 357.2 661C359.9 661 362.5 661 365.2 661C426.9 661.1 488.7 662.2 550.4 662.7C551.2 661.6 552.5 660.9 554.3 661C562.3 661.2 567.7 651 571 645C575.2 637.2 578.5 629 582 620.9C584.9 614.2 587.3 606.7 588.8 598.9H588.1C587.9 598.9 587.6 598.9 587.4 598.9C571.1 598.7 554.7 597.9 538.4 597.9C529.8 597.9 520.7 597.5 512.1 598.9C503.8 600.2 496.1 602.6 487.6 601.8C480.5 601.2 482.7 590.4 489.7 591C498.3 591.8 506.6 588.2 515.1 587.6C523.2 587.1 531.3 586.9 539.4 586.9C556.4 586.9 573.4 587.8 590.4 587.9C591.7 575.2 590.7 562.3 586.5 551.2C584.8 546.7 589.9 542.3 594.1 544.5C606.2 550.6 618.2 559 632 560.3C636.2 560.7 640.5 560.9 644.7 560.6C646.4 560.5 652.9 560.3 653.7 559C655.1 556.6 657.5 556 659.7 556.4C659.6 550.5 659.2 544.5 658.8 538.4ZM444.5 352.2C474.1 352.2 503.8 353.3 533.4 350.9C541.2 350.3 548.9 349.5 556.7 348.5C562.6 347.7 568.6 346.5 574.6 346.2C578 346 581.4 345.7 584.8 345.2C586.6 344.9 588.5 344.7 590.3 344.3C590.7 344.2 591.1 344.1 591.6 344C594.3 341.2 600.6 342.1 601.4 347.3C602.8 355.8 586.4 356.2 581.4 356.7C568.9 358 556.5 359.8 544.1 361.1C511.3 364.4 478.4 363.3 445.4 363.3C438.3 363.1 437.4 352.2 444.5 352.2ZM391.5 358.5C395.2 362.4 397.7 367.6 401.5 371.5C402.9 368.8 404.1 366.1 405.2 363.3C410.9 349 418.4 335.4 422.5 320.5C424.4 313.7 435.2 315.8 433.3 322.6C430 334.3 425 345.1 419.8 356C416.9 362 415.2 368.5 412.2 374.5C409.5 380.1 405.1 386.9 398.1 382.8C391.8 379.2 389 371.7 384.2 366.6C379.4 361.7 386.7 353.4 391.5 358.5ZM403.1 434.8C405.4 440.6 408.8 446 412.6 451.1C418.2 438.3 423.1 425.2 428 412.2C430.5 405.6 440.3 410.5 437.9 417.1C432 432.9 426 448.8 418.9 464.1C417 468.2 411.9 467.8 409.4 464.7C402.9 456.8 396.6 448.1 392.8 438.4C390.1 431.9 400.5 428.3 403.1 434.8ZM408.1 525.8C409.9 530.8 411.5 536 413.5 541C420.1 525.8 426.5 510.4 437.8 498C442.6 492.8 450.8 500 446.1 505.3C433 519.7 427 538.8 418.9 556.1C417.1 559.9 411.7 560.1 409.4 556.7C403.8 548.5 401.2 538.7 397.8 529.4C395.2 522.8 405.6 519.2 408.1 525.8ZM447 584.3C441.3 590.2 436.7 596.8 432.5 603.7C437.5 608 442.1 612.6 445.5 618.6C449 624.7 439.9 630.9 436.4 624.8C433.9 620.4 430.6 616.7 427 613.4C422.2 621.9 417.4 630.5 411.5 638.2C411.3 638.9 410.8 639.7 410.2 640.3C409.5 641 408.9 641.6 408.2 642.3C403.2 647.3 395.2 640.5 399.9 635C407.4 626.3 413 616.3 418.6 606.3C414 602.7 409.3 599 405.4 594.8C400.6 589.7 407.8 581.3 412.7 586.5C416.2 590.3 420.2 593.6 424.2 596.8C428.5 589.8 433.1 583 439 577C443.7 572 452 579.2 447 584.3ZM454.5 432.2C479.1 433 503.3 425.9 527.5 422.2C553.4 418.2 579.3 414.3 605.5 414.2C612.6 414.2 613.4 425.1 606.3 425.2C579.5 425.3 553.1 429.6 526.6 433.4C502.9 436.8 479.5 444 455.3 443.2C448.3 442.9 447.4 432 454.5 432.2ZM613.3 520.2C585.3 523.5 556.9 524.7 528.8 524.1C516.3 523.8 503.9 524 491.4 524.6C486.9 524.8 482.3 524.9 477.8 525.4C475.5 525.7 470.9 525.7 469 527.4C463.8 532 455.4 524.8 460.7 520.1C467.4 514.2 477.3 514.2 485.8 513.8C498 513.3 510 512.7 522.2 513C550 513.7 578 512.9 605.7 510C606.4 509.5 607.4 509.2 608.5 509.2H612.5C619.5 509.2 620.4 519.3 613.3 520.2Z" fill="white"/>
<path d="M633 571.6C621.2 570.7 610.9 565.8 600.7 560.5C604.9 582.7 599.9 607.5 591.5 627.5C589.9 631.2 588.4 635 586.8 638.7C594.4 631.5 602.4 624.7 610.2 617.5C618.9 609.4 627.3 601.1 635.9 592.9C643.2 585.9 650.3 578.6 656.5 570.6C656.5 570.4 656.6 570.2 656.7 570C649.3 572.9 639.7 572.1 633 571.6Z" fill="#E1E1E1"/>
<path d="M671.6 567.7C670.2 538.2 667.2 508.7 664.5 479.3C661.5 447 659.9 414.7 658.4 382.3C657.6 366.2 656.9 350.1 656.5 334C656.2 321.3 656.9 308.6 656.4 295.9C656.2 289.8 655.4 283.7 653.9 277.8C652.7 272.9 650.4 266.5 645.3 264.7C643.3 264 641.5 264.4 640.1 265.4C639.4 265.1 638.5 265 637.5 265.2C612.5 269 586.9 270.2 561.7 271C528.6 272.1 495.5 272.7 462.4 275C433.9 277 405.5 277.7 377 279.5C368.6 280 360.2 280.3 351.8 281.2C345.6 281.8 335.9 282.1 331.4 287.1C330.8 287.7 330.3 288.4 330 289.2C329.4 290.5 329.4 291.7 329.6 292.8C329.5 293.1 329.5 293.3 329.5 293.6C329 300.3 330.1 306.5 331.5 313C333.1 320.1 333.8 326.9 334.1 334.1C334.7 349.2 334.9 364.2 335.4 379.3C336.5 411.2 336.5 443 339.5 474.7C341 490.5 343.1 506.3 344.9 522.1C346.7 537.3 346.6 552.8 346.6 568.1C346.5 600.4 346.4 632.8 346.4 665.1C346.4 667.7 347.8 669.2 349.6 669.7C350.6 671.1 352.1 672.1 354.3 672.1C420.5 672.1 486.6 673.3 552.8 673.8C558.8 673.9 564.9 673.9 570.9 673.9V672.9C571.6 672.5 572.3 671.8 572.8 671C584.7 652.2 603.3 638.5 619.4 623.6C627.7 615.9 635.7 607.9 643.9 600.1C652.6 591.8 661 583.1 668 573.2C669.4 571.3 669.5 569.2 668.8 567.6H671.6V567.7ZM656.3 570.6C650 578.6 643 585.8 635.7 592.9C627.2 601.1 618.7 609.5 610 617.5C602.3 624.6 594.3 631.5 586.6 638.7C588.2 635 589.8 631.2 591.3 627.5C599.7 607.5 604.7 582.7 600.5 560.5C610.7 565.9 621 570.7 632.8 571.6C639.5 572.1 649.1 572.9 656.3 570C656.4 570.2 656.3 570.4 656.3 570.6ZM654 559.2C653.2 560.5 646.7 560.7 645 560.8C640.8 561.1 636.5 560.9 632.3 560.5C618.5 559.2 606.5 550.8 594.4 544.7C590.2 542.6 585 546.9 586.8 551.4C591.1 562.5 592 575.4 590.7 588.1C573.7 588 556.7 587.1 539.7 587.1C531.6 587.1 523.5 587.2 515.4 587.8C506.9 588.4 498.6 592 490 591.2C483 590.6 480.8 601.4 487.9 602C496.4 602.8 504.1 600.4 512.4 599.1C520.9 597.7 530.1 598.1 538.7 598.1C555.1 598 571.4 598.9 587.7 599.1C587.9 599.1 588.2 599.1 588.4 599.1H589.1C587.5 606.9 585.2 614.4 582.3 621.1C578.8 629.2 575.5 637.4 571.3 645.2C568 651.2 562.6 661.4 554.6 661.2C552.8 661.2 551.5 661.9 550.7 662.9C489 662.4 427.2 661.3 365.5 661.2C362.8 661.2 360.2 661.2 357.5 661.2C357.5 630.5 357.6 599.9 357.7 569.2C357.8 554 357.9 538.5 356.2 523.3C354.4 507.5 352.3 491.7 350.7 475.9C347.5 444.8 347.3 413.6 346.5 382.4C346.1 367.3 345.6 352.2 345.2 337.1C345 330 344.7 322.9 343.3 315.9C342 309.4 339.8 302.6 340.3 295.9C340.3 295.4 340.3 295 340.3 294.6C341.4 294.2 342.6 293.9 343.8 293.6C347.8 292.8 351.8 292.4 355.9 292.1C363.9 291.4 371.9 291.2 379.9 290.6C392.9 289.7 405.8 289.1 418.8 288.8C435 288.4 451.1 287.1 467.3 286C499.7 283.8 532.1 283.3 564.6 282.2C589.1 281.4 614.2 280.1 638.5 276.4C639.6 276.2 640.5 275.8 641.3 275.2C641.8 276.1 642.2 277.1 642.6 278C643.6 280.4 644.2 283 644.6 285.6C645.7 291.8 645.8 298.1 645.9 304.3C646 317.8 645.7 331.3 646.1 344.8C647 377 648.3 409.3 650.6 441.4C652.9 473.8 656.6 506.2 659.1 538.6C659.6 544.6 660 550.7 660.3 556.8C657.8 556.2 655.4 556.9 654 559.2Z" fill="#010101"/>
<path d="M422.5 320.6C418.3 335.4 410.8 349.1 405.2 363.4C404.1 366.2 402.9 368.9 401.5 371.6C397.7 367.7 395.2 362.5 391.5 358.6C386.6 353.4 379.4 361.8 384.2 366.9C389 372 391.8 379.5 398.1 383.1C405.2 387.1 409.5 380.3 412.2 374.8C415.1 368.8 416.9 362.3 419.8 356.3C425 345.4 430 334.6 433.3 322.9C435.2 315.9 424.4 313.8 422.5 320.6ZM601.4 347.2C600.6 342 594.3 341.1 591.6 343.9C591.2 344 590.8 344.1 590.3 344.2C588.5 344.6 586.6 344.8 584.8 345.1C581.4 345.6 578 345.9 574.6 346.1C568.7 346.4 562.6 347.7 556.7 348.4C549 349.4 541.2 350.2 533.4 350.8C503.8 353.2 474.1 352.1 444.5 352.1C437.4 352.1 438.3 363.1 445.3 363.1C478.2 363.1 511.1 364.2 544 360.9C556.5 359.7 568.9 357.8 581.3 356.5C586.4 356.1 602.8 355.8 601.4 347.2ZM428 412.2C423.1 425.3 418.2 438.3 412.6 451.1C408.8 446 405.4 440.6 403.1 434.8C400.5 428.2 390.1 431.8 392.7 438.4C396.5 448 402.8 456.7 409.3 464.7C411.8 467.7 416.9 468.1 418.8 464.1C425.9 448.8 431.9 432.9 437.8 417.1C440.3 410.5 430.5 405.6 428 412.2ZM605.5 414.2C579.3 414.3 553.4 418.2 527.5 422.2C503.3 425.9 479.1 433 454.5 432.2C447.4 432 448.3 442.9 455.3 443.2C479.5 444 502.9 436.9 526.6 433.4C553.1 429.6 579.5 425.3 606.3 425.2C613.4 425.1 612.5 414.2 605.5 414.2ZM437.8 498C426.6 510.4 420.2 525.8 413.5 541C411.5 536 409.9 530.8 408.1 525.8C405.7 519.2 395.3 522.8 397.7 529.4C401.1 538.7 403.7 548.4 409.3 556.7C411.6 560.1 417 559.9 418.8 556.1C426.9 538.8 433 519.7 446 505.3C450.8 500 442.5 492.8 437.8 498ZM612.5 509.2H608.5C607.4 509.2 606.4 509.5 605.7 510C578 512.9 550.1 513.7 522.2 513C510 512.7 498 513.3 485.8 513.8C477.3 514.2 467.4 514.2 460.7 520.1C455.4 524.8 463.7 532 469 527.4C470.9 525.7 475.4 525.7 477.8 525.4C482.3 524.9 486.9 524.8 491.4 524.6C503.9 524 516.2 523.8 528.8 524.1C557 524.7 585.3 523.5 613.3 520.2C620.4 519.3 619.5 509.2 612.5 509.2ZM438.8 577C433 583 428.3 589.7 424 596.8C420 593.6 416 590.3 412.5 586.5C407.7 581.3 400.5 589.6 405.2 594.8C409.2 599.1 413.8 602.7 418.4 606.3C412.7 616.3 407.2 626.3 399.7 635C395 640.4 403 647.2 408 642.3C408.7 641.6 409.3 641 410 640.3C410.7 639.6 411.1 638.9 411.3 638.2C417.2 630.5 422 621.9 426.8 613.4C430.4 616.7 433.7 620.4 436.2 624.8C439.7 631 448.8 624.8 445.3 618.6C442 612.7 437.3 608 432.3 603.7C436.5 596.8 441.1 590.1 446.8 584.3C452 579.2 443.7 572 438.8 577Z" fill="#010101"/>
</g>
</svg>
